<?xml version="1.0" encoding="UTF-8"?>
<svg width="600" height="400" viewBox="0 0 600 400" fill="none" xmlns="http://www.w3.org/2000/svg">
  <!-- Background shape -->
  <path d="M346.5 342.5C471.7 342.5 573 266.3 573 171.5C573 76.7 471.7 0.5 346.5 0.5C221.3 0.5 120 76.7 120 171.5C120 266.3 221.3 342.5 346.5 342.5Z" fill="#F3F4FF" fill-opacity="0.15"/>
  
  <!-- Document with video proof concept -->
  <g filter="url(#filter0_d)">
    <!-- Main document -->
    <rect x="200" y="80" width="240" height="320" rx="12" fill="white"/>
    
    <!-- Document header -->
    <rect x="220" y="110" width="200" height="20" rx="4" fill="#E2E8FF"/>
    <rect x="220" y="140" width="150" height="12" rx="2" fill="#D1D9FF"/>
    <rect x="220" y="160" width="180" height="12" rx="2" fill="#D1D9FF"/>
    
    <!-- Video thumbnail area -->
    <rect x="220" y="190" width="200" height="120" rx="6" fill="#6B7ED6"/>
    
    <!-- Play button -->
    <circle cx="320" cy="250" r="24" fill="white" fill-opacity="0.9"/>
    <path d="M330 250L315 260V240L330 250Z" fill="#6B7ED6"/>
    
    <!-- Document content lines -->
    <rect x="220" y="330" width="200" height="10" rx="2" fill="#E2E8FF"/>
    <rect x="220" y="350" width="160" height="10" rx="2" fill="#E2E8FF"/>
    <rect x="220" y="370" width="180" height="10" rx="2" fill="#E2E8FF"/>
  </g>

  <!-- Certificate/Proof seal -->
  <circle cx="440" cy="100" r="40" fill="#FFC107"/>
  <path d="M440 70V130M410 100H470" stroke="white" stroke-width="5" stroke-linecap="round"/>
  <circle cx="440" cy="100" r="30" stroke="white" stroke-width="3" fill="none"/>
  
  <!-- Lock icon -->
  <g transform="translate(150, 220)">
    <rect x="0" y="20" width="60" height="50" rx="8" fill="#6B7ED6"/>
    <path d="M15 20V10C15 -3 45 -3 45 10V20" stroke="#6B7ED6" stroke-width="8" stroke-linecap="round"/>
    <circle cx="30" cy="45" r="8" fill="white"/>
    <rect x="28" y="40" width="4" height="15" rx="2" fill="white"/>
  </g>

  <!-- Abstract connection lines -->
  <path d="M180 220C150 200 140 160 160 120" stroke="#D1D9FF" stroke-width="3" stroke-dasharray="6 6"/>
  <path d="M440 140C460 170 460 200 430 220" stroke="#D1D9FF" stroke-width="3" stroke-dasharray="6 6"/>
  
  <!-- Filter for shadow -->
  <defs>
    <filter id="filter0_d" x="190" y="74" width="260" height="340" filterUnits="userSpaceOnUse" color-interpolation-filters="sRGB">
      <feFlood flood-opacity="0" result="BackgroundImageFix"/>
      <feColorMatrix in="SourceAlpha" type="matrix" values="0 0 0 0 0 0 0 0 0 0 0 0 0 0 0 0 0 0 127 0"/>
      <feOffset dy="4"/>
      <feGaussianBlur stdDeviation="5"/>
      <feColorMatrix type="matrix" values="0 0 0 0 0 0 0 0 0 0 0 0 0 0 0 0 0 0 0.15 0"/>
      <feBlend mode="normal" in2="BackgroundImageFix" result="effect1_dropShadow"/>
      <feBlend mode="normal" in="SourceGraphic" in2="effect1_dropShadow" result="shape"/>
    </filter>
  </defs>
</svg>
